<svg width="120" height="40" viewBox="0 0 120 40" fill="none" xmlns="http://www.w3.org/2000/svg">
<rect x="0.5" y="0.5" width="119" height="39" rx="5.5" fill="black"/>
<rect x="0.5" y="0.5" width="119" height="39" rx="5.5" stroke="#A6A6A6"/>
<path d="M24.7045 20.7631C24.7166 19.8432 24.9669 18.9413 25.4321 18.1412C25.8972 17.3411 26.5621 16.6688 27.3648 16.187C26.8548 15.476 26.1821 14.8908 25.4 14.478C24.6178 14.0652 23.7479 13.8361 22.8592 13.809C20.9635 13.6147 19.1258 14.9164 18.1598 14.9164C17.1751 14.9164 15.6878 13.8283 14.0862 13.8604C13.0502 13.8931 12.0406 14.1872 11.1557 14.7141C10.2708 15.241 9.54075 15.9827 9.03674 16.8669C6.85352 20.5573 8.48201 25.9809 10.5734 28.964C11.6197 30.4247 12.8426 32.0564 14.4428 31.9985C16.0086 31.9351 16.5934 31.0237 18.4835 31.0237C20.3561 31.0237 20.9048 31.9985 22.5374 31.9617C24.2176 31.9351 25.2762 30.4945 26.2859 29.02C27.0377 27.9792 27.6162 26.8288 28 25.6116C27.0238 25.2085 26.1908 24.5338 25.6048 23.6716C25.0187 22.8094 24.7056 21.7979 24.7045 20.7631Z" fill="white"/>
<path d="M21.6208 11.8471C22.5369 10.7734 22.9883 9.39335 22.879 8C21.4794 8.14352 20.1865 8.7966 19.258 9.82911C18.804 10.3335 18.4563 10.9203 18.2348 11.556C18.0132 12.1917 17.9222 12.8638 17.9669 13.5338C18.6669 13.5408 19.3595 13.3927 19.9924 13.1005C20.6254 12.8084 21.1821 12.3798 21.6208 11.8471Z" fill="white"/>
<path d="M38.8381 14.5H36.7191V7.95455H38.9052C39.5465 7.95455 40.0973 8.08558 40.5575 8.34766C41.0178 8.6076 41.3704 8.98153 41.6154 9.46946C41.8626 9.95526 41.9862 10.538 41.9862 11.2177C41.9862 11.8995 41.8615 12.4854 41.6122 12.9755C41.3651 13.4656 41.0071 13.8427 40.5384 14.1069C40.0696 14.369 39.5028 14.5 38.8381 14.5ZM37.7067 13.6371H38.7837C39.2823 13.6371 39.6967 13.5433 40.027 13.3558C40.3572 13.1662 40.6044 12.8924 40.7685 12.5344C40.9325 12.1744 41.0146 11.7354 41.0146 11.2177C41.0146 10.7042 40.9325 10.2685 40.7685 9.91051C40.6065 9.55256 40.3647 9.28089 40.043 9.09553C39.7212 8.91016 39.3217 8.81747 38.8445 8.81747H37.7067V13.6371ZM43.1375 14.5V9.59091H44.0931V14.5H43.1375ZM43.6201 8.83345C43.4539 8.83345 43.3112 8.77805 43.1919 8.66726C43.0747 8.55433 43.0161 8.4201 43.0161 8.26456C43.0161 8.10689 43.0747 7.97266 43.1919 7.86186C43.3112 7.74893 43.4539 7.69247 43.6201 7.69247C43.7863 7.69247 43.928 7.74893 44.0452 7.86186C44.1645 7.97266 44.2242 8.10689 44.2242 8.26456C44.2242 8.4201 44.1645 8.55433 44.0452 8.66726C43.928 8.77805 43.7863 8.83345 43.6201 8.83345ZM49.0574 10.7894L48.1912 10.9428C48.155 10.832 48.0975 10.7266 48.0186 10.6264C47.9419 10.5263 47.8375 10.4442 47.7054 10.3803C47.5733 10.3164 47.4082 10.2844 47.21 10.2844C46.9395 10.2844 46.7136 10.3452 46.5325 10.4666C46.3514 10.5859 46.2608 10.7404 46.2608 10.93C46.2608 11.0941 46.3216 11.2262 46.443 11.3263C46.5645 11.4265 46.7605 11.5085 47.0311 11.5724L47.8109 11.7514C48.2626 11.8558 48.5993 12.0167 48.8208 12.234C49.0424 12.4513 49.1532 12.7337 49.1532 13.081C49.1532 13.375 49.068 13.6371 48.8975 13.8672C48.7292 14.0952 48.4938 14.2741 48.1912 14.4041C47.8908 14.5341 47.5424 14.5991 47.1461 14.5991C46.5964 14.5991 46.1479 14.4819 45.8006 14.2475C45.4533 14.011 45.2402 13.6754 45.1614 13.2408L46.085 13.1001C46.1426 13.3409 46.2608 13.5231 46.4398 13.6467C46.6188 13.7681 46.8521 13.8288 47.1397 13.8288C47.4529 13.8288 47.7033 13.7638 47.8908 13.6339C48.0783 13.5018 48.1721 13.3409 48.1721 13.1513C48.1721 12.9979 48.1145 12.869 47.9995 12.7646C47.8865 12.6602 47.7129 12.5813 47.4785 12.5281L46.6475 12.3459C46.1895 12.2415 45.8507 12.0753 45.6312 11.8473C45.4139 11.6193 45.3052 11.3306 45.3052 10.9812C45.3052 10.6914 45.3862 10.4379 45.5481 10.2205C45.71 10.0032 45.9338 9.83381 46.2193 9.71236C46.5048 9.58878 46.8319 9.52699 47.2005 9.52699C47.731 9.52699 48.1486 9.64205 48.4533 9.87216C48.758 10.1001 48.9593 10.4059 49.0574 10.7894ZM50.2039 16.3409V9.59091H51.1372V10.3867H51.2171C51.2725 10.2844 51.3524 10.1662 51.4568 10.032C51.5612 9.89773 51.7061 9.78054 51.8914 9.6804C52.0768 9.57812 52.3218 9.52699 52.6265 9.52699C53.0228 9.52699 53.3765 9.62713 53.6876 9.82741C53.9987 10.0277 54.2426 10.3164 54.4195 10.6935C54.5985 11.0707 54.6879 11.5245 54.6879 12.055C54.6879 12.5856 54.5995 13.0405 54.4227 13.4197C54.2458 13.7969 54.0029 14.0877 53.694 14.2923C53.385 14.4947 53.0324 14.5959 52.6361 14.5959C52.3378 14.5959 52.0938 14.5458 51.9042 14.4457C51.7167 14.3455 51.5697 14.2283 51.4632 14.0941C51.3566 13.9599 51.2746 13.8406 51.2171 13.7362H51.1595V16.3409H50.2039ZM51.1404 12.0455C51.1404 12.3906 51.1904 12.6932 51.2906 12.9531C51.3907 13.2131 51.5356 13.4165 51.7252 13.5636C51.9149 13.7085 52.1471 13.7809 52.422 13.7809C52.7075 13.7809 52.9461 13.7053 53.1379 13.554C53.3296 13.4006 53.4745 13.1928 53.5725 12.9308C53.6727 12.6687 53.7227 12.3736 53.7227 12.0455C53.7227 11.7216 53.6737 11.4308 53.5757 11.1729C53.4798 10.9151 53.335 10.7116 53.1411 10.5625C52.9493 10.4134 52.7096 10.3388 52.422 10.3388C52.145 10.3388 51.9106 10.4102 51.7188 10.5529C51.5292 10.6957 51.3854 10.8949 51.2874 11.1506C51.1894 11.4062 51.1404 11.7045 51.1404 12.0455ZM57.8264 14.5991C57.3662 14.5991 56.9646 14.4936 56.6215 14.2827C56.2785 14.0717 56.0122 13.7766 55.8225 13.3974C55.6329 13.0181 55.5381 12.5749 55.5381 12.0678C55.5381 11.5586 55.6329 11.1133 55.8225 10.7319C56.0122 10.3505 56.2785 10.0543 56.6215 9.84339C56.9646 9.63246 57.3662 9.52699 57.8264 9.52699C58.2867 9.52699 58.6883 9.63246 59.0313 9.84339C59.3744 10.0543 59.6407 10.3505 59.8303 10.7319C60.02 11.1133 60.1148 11.5586 60.1148 12.0678C60.1148 12.5749 60.02 13.0181 59.8303 13.3974C59.6407 13.7766 59.3744 14.0717 59.0313 14.2827C58.6883 14.4936 58.2867 14.5991 57.8264 14.5991ZM57.8296 13.7969C58.1279 13.7969 58.3751 13.718 58.5711 13.5604C58.7671 13.4027 58.912 13.1928 59.0058 12.9308C59.1017 12.6687 59.1496 12.38 59.1496 12.0646C59.1496 11.7514 59.1017 11.4638 59.0058 11.2017C58.912 10.9375 58.7671 10.7255 58.5711 10.5657C58.3751 10.4059 58.1279 10.326 57.8296 10.326C57.5292 10.326 57.2799 10.4059 57.0818 10.5657C56.8857 10.7255 56.7398 10.9375 56.6439 11.2017C56.5502 11.4638 56.5033 11.7514 56.5033 12.0646C56.5033 12.38 56.5502 12.6687 56.6439 12.9308C56.7398 13.1928 56.8857 13.4027 57.0818 13.5604C57.2799 13.718 57.5292 13.7969 57.8296 13.7969ZM62.1371 11.5852V14.5H61.1815V9.59091H62.0987V10.3899H62.1594C62.2724 10.13 62.4492 9.92116 62.69 9.76349C62.9329 9.60582 63.2386 9.52699 63.6072 9.52699C63.9418 9.52699 64.2347 9.5973 64.4862 9.73793C64.7376 9.87642 64.9325 10.0831 65.071 10.358C65.2095 10.6328 65.2788 10.9727 65.2788 11.3775V14.5H64.3232V11.4925C64.3232 11.1367 64.2305 10.8587 64.0451 10.6584C63.8597 10.456 63.6051 10.3548 63.2812 10.3548C63.0597 10.3548 62.8626 10.4027 62.69 10.4986C62.5195 10.5945 62.3842 10.7351 62.2841 10.9205C62.1861 11.1037 62.1371 11.3253 62.1371 11.5852ZM66.5604 14.5V9.59091H67.516V14.5H66.5604ZM66.6499 8.93572L67.3977 7.46236H68.4045L67.4137 8.93572H66.6499ZM73.0012 9.59091L71.221 14.5H70.1982L68.4149 9.59091H69.4408L70.684 13.3686H70.7352L71.9752 9.59091H73.0012ZM75.848 14.5991C75.3643 14.5991 74.9478 14.4957 74.5984 14.2891C74.2511 14.0803 73.9826 13.7873 73.793 13.4102C73.6055 13.0309 73.5117 12.5866 73.5117 12.0774C73.5117 11.5746 73.6055 11.1314 73.793 10.7479C73.9826 10.3643 74.2468 10.065 74.5856 9.84979C74.9265 9.63459 75.3249 9.52699 75.7809 9.52699C76.0579 9.52699 76.3263 9.5728 76.5863 9.66442C76.8462 9.75604 77.0795 9.89986 77.2862 10.0959C77.4929 10.2919 77.6559 10.5465 77.7752 10.8597C77.8945 11.1708 77.9542 11.549 77.9542 11.9943V12.3331H74.0518V11.6172H77.0178C77.0178 11.3658 76.9666 11.1431 76.8643 10.9492C76.7621 10.7532 76.6183 10.5987 76.4329 10.4858C76.2496 10.3729 76.0344 10.3164 75.7873 10.3164C75.5188 10.3164 75.2844 10.3825 75.0842 10.5146C74.886 10.6445 74.7326 10.815 74.6239 11.0259C74.5174 11.2347 74.4641 11.4616 74.4641 11.7067V12.266C74.4641 12.5941 74.5217 12.8732 74.6367 13.1033C74.7539 13.3335 74.9169 13.5092 75.1257 13.6307C75.3345 13.75 75.5785 13.8097 75.8576 13.8097C76.0387 13.8097 76.2038 13.7841 76.353 13.733C76.5021 13.6797 76.631 13.6009 76.7397 13.4964C76.8484 13.392 76.9315 13.2631 76.989 13.1097L77.8935 13.2727C77.821 13.5391 77.6911 13.7724 77.5036 13.9727C77.3182 14.1708 77.0849 14.3253 76.8036 14.4361C76.5245 14.5447 76.206 14.5991 75.848 14.5991ZM79.9701 7.95455V14.5H79.0145V7.95455H79.9701ZM84.5931 11.5852V14.5H83.6375V9.59091H84.5548V10.3899H84.6155C84.7284 10.13 84.9053 9.92116 85.146 9.76349C85.3889 9.60582 85.6947 9.52699 86.0633 9.52699C86.3978 9.52699 86.6908 9.5973 86.9422 9.73793C87.1936 9.87642 87.3886 10.0831 87.5271 10.358C87.6656 10.6328 87.7348 10.9727 87.7348 11.3775V14.5H86.7792V11.4925C86.7792 11.1367 86.6865 10.8587 86.5012 10.6584C86.3158 10.456 86.0612 10.3548 85.7373 10.3548C85.5157 10.3548 85.3186 10.4027 85.146 10.4986C84.9756 10.5945 84.8403 10.7351 84.7401 10.9205C84.6421 11.1037 84.5931 11.3253 84.5931 11.5852ZM90.445 14.6087C90.134 14.6087 89.8527 14.5511 89.6013 14.4361C89.3499 14.3189 89.1507 14.1495 89.0036 13.9279C88.8588 13.7063 88.7863 13.4347 88.7863 13.1129C88.7863 12.8359 88.8396 12.608 88.9461 12.429C89.0526 12.25 89.1965 12.1083 89.3776 12.0039C89.5587 11.8995 89.7611 11.8207 89.9848 11.7674C90.2085 11.7141 90.4365 11.6737 90.6688 11.646C90.9628 11.6119 91.2014 11.5842 91.3847 11.5629C91.5679 11.5394 91.7011 11.5021 91.7842 11.451C91.8673 11.3999 91.9088 11.3168 91.9088 11.2017V11.1793C91.9088 10.9002 91.83 10.6839 91.6723 10.5305C91.5168 10.3771 91.2845 10.3004 90.9756 10.3004C90.6539 10.3004 90.4003 10.3718 90.2149 10.5146C90.0317 10.6552 89.9049 10.8118 89.8346 10.9844L88.9365 10.7798C89.0431 10.4815 89.1986 10.2408 89.4031 10.0575C89.6098 9.87216 89.8474 9.73793 90.1159 9.65483C90.3843 9.5696 90.6666 9.52699 90.9628 9.52699C91.1588 9.52699 91.3666 9.55043 91.586 9.5973C91.8076 9.64205 92.0143 9.72514 92.2061 9.84659C92.3999 9.96804 92.5587 10.1417 92.6823 10.3675C92.8058 10.5913 92.8676 10.8821 92.8676 11.2401V14.5H91.9344V13.8288H91.896C91.8343 13.9524 91.7416 14.0739 91.618 14.1932C91.4944 14.3125 91.3357 14.4116 91.1418 14.4904C90.9479 14.5692 90.7156 14.6087 90.445 14.6087ZM90.6528 13.8416C90.917 13.8416 91.1428 13.7894 91.3303 13.685C91.52 13.5806 91.6638 13.4442 91.7618 13.2759C91.8619 13.1055 91.912 12.9233 91.912 12.7294V12.0966C91.8779 12.1307 91.8119 12.1626 91.7139 12.1925C91.618 12.2202 91.5083 12.2447 91.3847 12.266C91.2611 12.2852 91.1407 12.3033 91.0235 12.3203C90.9063 12.3352 90.8083 12.348 90.7295 12.3587C90.5441 12.3821 90.3747 12.4215 90.2213 12.4769C90.07 12.5323 89.9486 12.6122 89.857 12.7166C89.7675 12.8189 89.7227 12.9553 89.7227 13.1257C89.7227 13.3622 89.8101 13.5412 89.9848 13.6626C90.1595 13.782 90.3822 13.8416 90.6528 13.8416Z" fill="white"/>
<path d="M38.2061 30.5H36.1758L40.3066 18.5029H42.5391L46.6611 30.5H44.5518L43.4883 27.1777H39.2783L38.2061 30.5ZM41.4316 20.5771H41.3525L39.7266 25.6484H43.04L41.4316 20.5771ZM52.2644 30.6318C51.0603 30.6318 50.1462 30.0605 49.654 29.208H49.5837V33.585H47.6325V21.21H49.531V22.5723H49.6013C50.1111 21.6846 51.0603 21.0869 52.3083 21.0869C54.3913 21.0869 55.8767 22.6602 55.8767 25.4375V26.2637C55.8767 29.0234 54.4089 30.6318 52.2644 30.6318ZM51.8161 29.0234C53.0554 29.0234 53.8991 28.0303 53.8991 26.1582V25.5078C53.8991 23.7061 53.1081 22.6777 51.781 22.6777C50.4187 22.6777 49.5661 23.7852 49.5661 25.499V26.1582C49.5661 27.916 50.4275 29.0234 51.8161 29.0234ZM62.183 30.6318C60.9789 30.6318 60.0649 30.0605 59.5727 29.208H59.5024V33.585H57.5512V21.21H59.4496V22.5723H59.52C60.0297 21.6846 60.9789 21.0869 62.227 21.0869C64.31 21.0869 65.7954 22.6602 65.7954 25.4375V26.2637C65.7954 29.0234 64.3276 30.6318 62.183 30.6318ZM61.7348 29.0234C62.9741 29.0234 63.8178 28.0303 63.8178 26.1582V25.5078C63.8178 23.7061 63.0268 22.6777 61.6996 22.6777C60.3373 22.6777 59.4848 23.7852 59.4848 25.499V26.1582C59.4848 27.916 60.3461 29.0234 61.7348 29.0234ZM69.8387 27.1689H71.7899C71.8778 28.2061 72.7919 29.0938 74.4882 29.0938C76.0438 29.0938 76.9667 28.3643 76.9667 27.2305C76.9667 26.3164 76.3514 25.8242 75.0682 25.5166L73.0995 25.0244C71.5526 24.6641 70.1639 23.7412 70.1639 21.79C70.1639 19.4961 72.1679 18.2393 74.497 18.2393C76.8261 18.2393 78.7684 19.4961 78.8124 21.7373H76.8964C76.8085 20.7178 76.0262 19.874 74.4706 19.874C73.0995 19.874 72.1679 20.5244 72.1679 21.6406C72.1679 22.4229 72.7128 22.9854 73.829 23.2402L75.7889 23.7236C77.5907 24.1631 78.9618 25.0156 78.9618 27.0547C78.9618 29.4102 77.0546 30.7373 74.3387 30.7373C70.9989 30.7373 69.8827 28.7861 69.8387 27.1689ZM81.3395 21.21V18.9512H83.2555V21.21H85.066V22.7744H83.2555V27.7314C83.2555 28.7422 83.6334 29.0234 84.6793 29.0234C84.8463 29.0234 85.0045 29.0234 85.1188 29.0059V30.5C84.9605 30.5264 84.5914 30.5615 84.1959 30.5615C81.9371 30.5615 81.3131 29.7529 81.3131 27.8896V22.7744H80.0299V21.21H81.3395ZM90.3353 21.0518C93.0071 21.0518 94.4573 22.9326 94.4573 25.4639V26.2109C94.4573 28.8301 93.0159 30.6582 90.3353 30.6582C87.6546 30.6582 86.1956 28.8301 86.1956 26.2109V25.4639C86.1956 22.9414 87.6634 21.0518 90.3353 21.0518ZM90.3353 22.6162C88.8851 22.6162 88.1644 23.8027 88.1644 25.4902V26.2021C88.1644 27.8633 88.8763 29.085 90.3353 29.085C91.7943 29.085 92.4974 27.8721 92.4974 26.2021V25.4902C92.4974 23.7939 91.7855 22.6162 90.3353 22.6162ZM96.1055 30.5V21.21H98.0567V22.4316H98.127C98.3643 21.8516 99.0586 21.0781 100.351 21.0781C100.606 21.0781 100.825 21.0957 101.01 21.1309V22.8535C100.843 22.8096 100.5 22.7832 100.175 22.7832C98.6104 22.7832 98.083 23.75 98.083 24.998V30.5H96.1055ZM105.743 30.6582C103.256 30.6582 101.674 29.0146 101.674 26.2637V25.3232C101.674 22.7305 103.22 21.0518 105.664 21.0518C108.142 21.0518 109.636 22.792 109.636 25.4111V26.2988H103.598V26.5186C103.598 28.083 104.442 29.1201 105.769 29.1201C106.762 29.1201 107.439 28.6279 107.677 27.8281H109.531C109.25 29.3311 108.037 30.6582 105.743 30.6582ZM103.598 24.9365H107.729V24.9189C107.729 23.6006 106.912 22.5635 105.673 22.5635C104.416 22.5635 103.598 23.6006 103.598 24.9189V24.9365Z" fill="white"/>
</svg>
