<svg width="120" height="40" viewBox="0 0 120 40" fill="none" xmlns="http://www.w3.org/2000/svg">
<rect x="0.5" y="0.5" width="119" height="39" rx="5.5" fill="black"/>
<rect x="0.5" y="0.5" width="119" height="39" rx="5.5" stroke="#A6A6A6"/>
<path d="M17.8048 19.4617L8.0896 30.0059C8.09051 30.0078 8.09051 30.0106 8.09142 30.0125C8.38981 31.1574 9.41179 32 10.6254 32C11.1108 32 11.5662 31.8656 11.9567 31.6305L11.9877 31.6118L22.9229 25.1593L17.8048 19.4617Z" fill="#EA4335"/>
<path d="M27.6331 17.6662L27.624 17.6597L22.9028 14.8612L17.5839 19.7013L22.9219 25.1582L27.6176 22.3878C28.4406 21.9324 29 21.045 29 20.0223C29 19.0052 28.4489 18.1225 27.6331 17.6662Z" fill="#FBBC04"/>
<path d="M8.08942 9.99331C8.03102 10.2135 8 10.4449 8 10.6838V29.3163C8 29.5552 8.03102 29.7866 8.09034 30.0059L18.1386 19.7313L8.08942 9.99331Z" fill="#4285F4"/>
<path d="M17.8766 19.9999L22.9044 14.8594L11.9819 8.38351C11.585 8.13996 11.1214 8 10.626 8C9.41237 8 8.38856 8.84447 8.09018 9.99034C8.09018 9.99127 8.08926 9.9922 8.08926 9.99314L17.8766 19.9999Z" fill="#34A853"/>
<path d="M38.5227 13.5H36.6392V7.68182H38.5824C39.1525 7.68182 39.642 7.7983 40.0511 8.03125C40.4602 8.26231 40.7737 8.5947 40.9915 9.02841C41.2112 9.46023 41.321 9.97822 41.321 10.5824C41.321 11.1884 41.2102 11.7093 40.9886 12.1449C40.7689 12.5805 40.4508 12.9157 40.0341 13.1506C39.6174 13.3835 39.1136 13.5 38.5227 13.5ZM37.517 12.733H38.4744C38.9176 12.733 39.286 12.6496 39.5795 12.483C39.8731 12.3144 40.0928 12.071 40.2386 11.7528C40.3845 11.4328 40.4574 11.0426 40.4574 10.5824C40.4574 10.1259 40.3845 9.73864 40.2386 9.42045C40.0947 9.10227 39.8797 8.8608 39.5938 8.69602C39.3078 8.53125 38.9527 8.44886 38.5284 8.44886H37.517V12.733ZM43.2905 7.68182V13.5H42.4126V7.68182H43.2905ZM47.7422 9.21023C47.7119 8.94129 47.5869 8.73295 47.3672 8.58523C47.1475 8.43561 46.871 8.3608 46.5376 8.3608C46.299 8.3608 46.0926 8.39867 45.9183 8.47443C45.7441 8.5483 45.6087 8.65057 45.5121 8.78125C45.4174 8.91004 45.37 9.05682 45.37 9.22159C45.37 9.35985 45.4022 9.47917 45.4666 9.57955C45.5329 9.67992 45.6191 9.7642 45.7251 9.83239C45.8331 9.89867 45.9486 9.95455 46.0717 10C46.1948 10.0436 46.3132 10.0795 46.4268 10.108L46.995 10.2557C47.1806 10.3011 47.371 10.3627 47.5661 10.4403C47.7611 10.518 47.942 10.6203 48.1087 10.7472C48.2753 10.8741 48.4098 11.0312 48.5121 11.2188C48.6162 11.4062 48.6683 11.6307 48.6683 11.892C48.6683 12.2216 48.5831 12.5142 48.4126 12.7699C48.2441 13.0256 47.9988 13.2273 47.6768 13.375C47.3568 13.5227 46.9695 13.5966 46.5149 13.5966C46.0793 13.5966 45.7024 13.5275 45.3842 13.3892C45.0661 13.2509 44.817 13.0549 44.6371 12.8011C44.4571 12.5455 44.3577 12.2424 44.3388 11.892H45.2195C45.2365 12.1023 45.3047 12.2775 45.424 12.4176C45.5452 12.5559 45.6996 12.6591 45.8871 12.7273C46.0765 12.7936 46.2839 12.8267 46.5092 12.8267C46.7573 12.8267 46.978 12.7879 47.1712 12.7102C47.3662 12.6307 47.5196 12.5208 47.6314 12.3807C47.7431 12.2386 47.799 12.0729 47.799 11.8835C47.799 11.7112 47.7498 11.5701 47.6513 11.4602C47.5547 11.3504 47.4231 11.2595 47.2564 11.1875C47.0916 11.1155 46.9051 11.0521 46.6967 10.9972L46.0092 10.8097C45.5433 10.6828 45.174 10.4962 44.9013 10.25C44.6304 10.0038 44.495 9.67803 44.495 9.27273C44.495 8.9375 44.5859 8.64489 44.7678 8.39489C44.9496 8.14489 45.1958 7.95076 45.5064 7.8125C45.817 7.67235 46.1674 7.60227 46.5575 7.60227C46.9515 7.60227 47.299 7.6714 47.6001 7.80966C47.9032 7.94792 48.1418 8.13826 48.3161 8.38068C48.4903 8.62121 48.5812 8.89773 48.5888 9.21023H47.7422ZM49.7173 13.5V7.68182H51.7912C52.2438 7.68182 52.6188 7.7642 52.9162 7.92898C53.2135 8.09375 53.4361 8.31913 53.5838 8.60511C53.7315 8.8892 53.8054 9.20928 53.8054 9.56534C53.8054 9.9233 53.7306 10.2453 53.581 10.5312C53.4332 10.8153 53.2098 11.0407 52.9105 11.2074C52.6132 11.3722 52.2391 11.4545 51.7884 11.4545H50.3622V10.7102H51.7088C51.9948 10.7102 52.2268 10.661 52.4048 10.5625C52.5829 10.4621 52.7135 10.3258 52.7969 10.1534C52.8802 9.98106 52.9219 9.78504 52.9219 9.56534C52.9219 9.34564 52.8802 9.15057 52.7969 8.98011C52.7135 8.80966 52.5819 8.67614 52.402 8.57955C52.224 8.48295 51.9891 8.43466 51.6974 8.43466H50.5952V13.5H49.7173ZM59.8885 10.5909C59.8885 11.2121 59.7749 11.7462 59.5476 12.1932C59.3203 12.6383 59.0088 12.9811 58.6129 13.2216C58.219 13.4602 57.7711 13.5795 57.2692 13.5795C56.7654 13.5795 56.3156 13.4602 55.9197 13.2216C55.5258 12.9811 55.2152 12.6373 54.9879 12.1903C54.7607 11.7434 54.647 11.2102 54.647 10.5909C54.647 9.9697 54.7607 9.43655 54.9879 8.99148C55.2152 8.54451 55.5258 8.2017 55.9197 7.96307C56.3156 7.72254 56.7654 7.60227 57.2692 7.60227C57.7711 7.60227 58.219 7.72254 58.6129 7.96307C59.0088 8.2017 59.3203 8.54451 59.5476 8.99148C59.7749 9.43655 59.8885 9.9697 59.8885 10.5909ZM59.0192 10.5909C59.0192 10.1174 58.9425 9.71875 58.7891 9.39489C58.6375 9.06913 58.4292 8.82292 58.1641 8.65625C57.9008 8.48769 57.6025 8.40341 57.2692 8.40341C56.9339 8.40341 56.6347 8.48769 56.3714 8.65625C56.1082 8.82292 55.8999 9.06913 55.7464 9.39489C55.5949 9.71875 55.5192 10.1174 55.5192 10.5909C55.5192 11.0644 55.5949 11.464 55.7464 11.7898C55.8999 12.1136 56.1082 12.3598 56.3714 12.5284C56.6347 12.6951 56.9339 12.7784 57.2692 12.7784C57.6025 12.7784 57.9008 12.6951 58.1641 12.5284C58.4292 12.3598 58.6375 12.1136 58.7891 11.7898C58.9425 11.464 59.0192 11.0644 59.0192 10.5909ZM65.679 7.68182V13.5H64.8722L61.9148 9.23295H61.8608V13.5H60.983V7.68182H61.7955L64.7557 11.9545H64.8097V7.68182H65.679ZM67.8374 7.68182V13.5H66.9595V7.68182H67.8374ZM67.0504 7.09943L67.7152 5.78977H68.6101L67.7294 7.09943H67.0504ZM69.6243 7.68182L71.2436 12.4205H71.3089L72.9283 7.68182H73.8771L71.7834 13.5H70.7692L68.6754 7.68182H69.6243ZM74.7173 13.5V7.68182H78.3651V8.4375H75.5952V10.2102H78.1747V10.9631H75.5952V12.7443H78.3991V13.5H74.7173ZM79.5376 13.5V7.68182H80.4155V12.7443H83.0518V13.5H79.5376ZM90.8665 7.68182V13.5H90.0597L87.1023 9.23295H87.0483V13.5H86.1705V7.68182H86.983L89.9432 11.9545H89.9972V7.68182H90.8665ZM97.201 10.5909C97.201 11.2121 97.0874 11.7462 96.8601 12.1932C96.6328 12.6383 96.3213 12.9811 95.9254 13.2216C95.5315 13.4602 95.0836 13.5795 94.5817 13.5795C94.0779 13.5795 93.6281 13.4602 93.2322 13.2216C92.8383 12.9811 92.5277 12.6373 92.3004 12.1903C92.0732 11.7434 91.9595 11.2102 91.9595 10.5909C91.9595 9.9697 92.0732 9.43655 92.3004 8.99148C92.5277 8.54451 92.8383 8.2017 93.2322 7.96307C93.6281 7.72254 94.0779 7.60227 94.5817 7.60227C95.0836 7.60227 95.5315 7.72254 95.9254 7.96307C96.3213 8.2017 96.6328 8.54451 96.8601 8.99148C97.0874 9.43655 97.201 9.9697 97.201 10.5909ZM96.3317 10.5909C96.3317 10.1174 96.255 9.71875 96.1016 9.39489C95.95 9.06913 95.7417 8.82292 95.4766 8.65625C95.2133 8.48769 94.915 8.40341 94.5817 8.40341C94.2464 8.40341 93.9472 8.48769 93.6839 8.65625C93.4207 8.82292 93.2124 9.06913 93.0589 9.39489C92.9074 9.71875 92.8317 10.1174 92.8317 10.5909C92.8317 11.0644 92.9074 11.464 93.0589 11.7898C93.2124 12.1136 93.4207 12.3598 93.6839 12.5284C93.9472 12.6951 94.2464 12.7784 94.5817 12.7784C94.915 12.7784 95.2133 12.6951 95.4766 12.5284C95.7417 12.3598 95.95 12.1136 96.1016 11.7898C96.255 11.464 96.3317 11.0644 96.3317 10.5909Z" fill="white"/>
<path d="M93.5181 29.9097H95.1469V18.8981H93.5181V29.9097ZM108.189 22.8646L106.322 27.6388H106.266L104.328 22.8646H102.573L105.479 29.5371L103.823 33.249H105.521L110 22.8646H108.189ZM98.9519 28.6588C98.4176 28.6588 97.6739 28.3902 97.6739 27.7234C97.6739 26.8742 98.6001 26.5483 99.4005 26.5483C100.116 26.5483 100.454 26.7042 100.889 26.9165C100.762 27.9365 99.892 28.6588 98.9519 28.6588ZM99.1483 22.6241C97.969 22.6241 96.7469 23.1482 96.2424 24.3101L97.6879 24.9188C97.9969 24.3101 98.5721 24.111 99.1762 24.111C100.019 24.111 100.875 24.621 100.889 25.5283V25.6411C100.594 25.471 99.9627 25.2165 99.1902 25.2165C97.632 25.2165 96.0451 26.0806 96.0451 27.6952C96.0451 29.1689 97.323 30.1184 98.7546 30.1184C99.8501 30.1184 100.454 29.6225 100.833 29.0411H100.889V29.8912H102.461V25.6692C102.461 23.7146 101.015 22.6241 99.1483 22.6241M89.0821 24.2053H86.7655V20.4308H89.0821C90.2998 20.4308 90.9911 21.4482 90.9911 22.3176C90.9911 23.1711 90.2998 24.2053 89.0821 24.2053ZM89.0402 18.8981H85.1375V29.9097H86.7655V25.7379H89.0402C90.8453 25.7379 92.6199 24.4184 92.6199 22.3176C92.6199 20.2168 90.8453 18.8981 89.0402 18.8981M67.7583 28.6606C66.6332 28.6606 65.6913 27.7102 65.6913 26.4047C65.6913 25.0852 66.6332 24.1198 67.7583 24.1198C68.8695 24.1198 69.7406 25.0852 69.7406 26.4047C69.7406 27.7102 68.8695 28.6606 67.7583 28.6606ZM69.6289 23.4812H69.5722C69.2064 23.0417 68.5038 22.6444 67.6178 22.6444C65.7611 22.6444 64.0599 24.2898 64.0599 26.4047C64.0599 28.5047 65.7611 30.1369 67.6178 30.1369C68.5038 30.1369 69.2064 29.7396 69.5722 29.2851H69.6289V29.8251C69.6289 31.2582 68.8695 32.0246 67.6457 32.0246C66.6471 32.0246 66.0282 31.3005 65.7751 30.6901L64.3549 31.2864C64.7626 32.28 65.8458 33.5 67.6457 33.5C69.5582 33.5 71.1757 32.3646 71.1757 29.5978V22.8708H69.6289V23.4812ZM72.3008 29.9097H73.9322V18.8973H72.3008V29.9097ZM76.3362 26.277C76.2943 24.8298 77.4474 24.0916 78.2766 24.0916C78.9243 24.0916 79.4725 24.4176 79.6549 24.8862L76.3362 26.277ZM81.3989 25.028C81.0899 24.1912 80.1472 22.6444 78.2208 22.6444C76.3083 22.6444 74.7196 24.1621 74.7196 26.3907C74.7196 28.4906 76.2943 30.1369 78.4032 30.1369C80.1053 30.1369 81.0899 29.0869 81.4976 28.4765L80.2319 27.6247C79.8103 28.2493 79.2333 28.6606 78.4032 28.6606C77.5739 28.6606 76.983 28.2774 76.6033 27.5261L81.5674 25.4534L81.3989 25.028ZM41.8501 23.7939V25.383H45.6184C45.5058 26.277 45.2107 26.9297 44.7612 27.3834C44.2121 27.9374 43.3541 28.5479 41.8501 28.5479C39.5291 28.5479 37.7152 26.6602 37.7152 24.3189C37.7152 21.9767 39.5291 20.0899 41.8501 20.0899C43.1018 20.0899 44.0157 20.5867 44.6905 21.2254L45.8017 20.104C44.8589 19.1959 43.6081 18.5 41.8501 18.5C38.6719 18.5 36 21.1117 36 24.3189C36 27.5261 38.6719 30.1369 41.8501 30.1369C43.5653 30.1369 44.8589 29.5688 45.8715 28.5047C46.9129 27.4547 47.2358 25.9793 47.2358 24.7866C47.2358 24.4176 47.2079 24.0775 47.1512 23.7939H41.8501ZM51.5208 28.6606C50.3957 28.6606 49.425 27.7243 49.425 26.3907C49.425 25.0421 50.3957 24.1198 51.5208 24.1198C52.6451 24.1198 53.6158 25.0421 53.6158 26.3907C53.6158 27.7243 52.6451 28.6606 51.5208 28.6606ZM51.5208 22.6444C49.4669 22.6444 47.7936 24.2194 47.7936 26.3907C47.7936 28.5479 49.4669 30.1369 51.5208 30.1369C53.5739 30.1369 55.2472 28.5479 55.2472 26.3907C55.2472 24.2194 53.5739 22.6444 51.5208 22.6444ZM59.65 28.6606C58.5249 28.6606 57.5542 27.7243 57.5542 26.3907C57.5542 25.0421 58.5249 24.1198 59.65 24.1198C60.7752 24.1198 61.745 25.0421 61.745 26.3907C61.745 27.7243 60.7752 28.6606 59.65 28.6606ZM59.65 22.6444C57.597 22.6444 55.9237 24.2194 55.9237 26.3907C55.9237 28.5479 57.597 30.1369 59.65 30.1369C61.7031 30.1369 63.3764 28.5479 63.3764 26.3907C63.3764 24.2194 61.7031 22.6444 59.65 22.6444Z" fill="white"/>
</svg>
